<mxfile host="app.diagrams.net" modified="2023-10-28T16:26:15.872Z" agent="Mozilla/5.0 (Windows NT 10.0; Win64; x64) AppleWebKit/537.36 (KHTML, like Gecko) Chrome/118.0.0.0 Safari/537.36" version="22.0.8" etag="YxK7P4FtqTdyjsBsEAd0" type="github">
  <diagram name="Page-1" id="yuQ4J0gb9cWEo__LiXOl">
    <mxGraphModel>
      <root>
        <mxCell id="0" />
        <mxCell id="1" parent="0" />
      </root>
    </mxGraphModel>
  </diagram>
</mxfile>
